<?xml version="1.0" encoding="UTF-8" standalone="no"?>
<!DOCTYPE svg PUBLIC "-//W3C//DTD SVG 1.1//EN" "http://www.w3.org/Graphics/SVG/1.1/DTD/svg11.dtd">

<svg xmlns="http://www.w3.org/2000/svg" version="1.1" viewBox="0 0 45 45">
	<g style="display:inline">
		<path
			style="fill:white;fill-opacity:1;fill-rule:evenodd;stroke:black;stroke-width:1.5;stroke-linecap:butt;stroke-linejoin:round;stroke-miterlimit:4;stroke-dasharray:none;stroke-opacity:1"
			d="M 9,36 C 12.385255,35.027671 19.114744,36.430821 22.5,34 C 25.885256,36.430821 32.614745,35.027671 36,36 C 36,36 37.645898,36.541507 39,38 C 38.322949,38.972328 37.354102,38.986164 36,38.5 C 32.614745,37.527672 25.885256,38.958493 22.5,37.5 C 19.114744,38.958493 12.385255,37.527672 9,38.5 C 7.6458978,38.986164 6.6770511,38.972328 6,38 C 7.3541023,36.055343 9,36 9,36 z " />
		<path
			style="fill:white;fill-opacity:1;fill-rule:evenodd;stroke:black;stroke-width:1.5;stroke-linecap:butt;stroke-linejoin:round;stroke-miterlimit:4;stroke-dasharray:none;stroke-opacity:1"
			d="M 15,32 C 17.5,34.5 27.5,34.5 30,32 C 30.5,30.5 30,30 30,30 C 30,27.5 27.5,26 27.5,26 C 33,24.5 33.5,14.5 22.5,10.5 C 11.5,14.5 12,24.5 17.5,26 C 17.5,26 15,27.5 15,30 C 15,30 14.5,30.5 15,32 z " />
		<path
			style="opacity:1;fill:white;fill-opacity:1;stroke:black;stroke-width:1.5;stroke-linecap:butt;stroke-linejoin:round;stroke-miterlimit:4;stroke-dasharray:none;stroke-opacity:1"
			d="M 25 10 A 2.5 2.5 0 1 1  20,10 A 2.5 2.5 0 1 1  25 10 z"
			transform="translate(0,-2)" />
		<path
			style="fill:none;fill-opacity:0.75;fill-rule:evenodd;stroke:black;stroke-width:1.5;stroke-linecap:butt;stroke-linejoin:miter;stroke-miterlimit:4;stroke-dasharray:none;stroke-opacity:1"
			d="M 17.5,26 L 27.5,26" />
		<path
			style="fill:none;fill-opacity:0.75;fill-rule:evenodd;stroke:black;stroke-width:1.5;stroke-linecap:butt;stroke-linejoin:miter;stroke-miterlimit:4;stroke-dasharray:none;stroke-opacity:1"
			d="M 15,30 L 30,30" />
		<path
			style="fill:none;fill-opacity:0.75;fill-rule:evenodd;stroke:black;stroke-width:1.5;stroke-linecap:round;stroke-linejoin:miter;stroke-miterlimit:4;stroke-dasharray:none;stroke-opacity:1"
			d="M 22.5,15.5 L 22.5,20.5" />
		<path
			style="fill:none;fill-opacity:0.75;fill-rule:evenodd;stroke:black;stroke-width:1.5;stroke-linecap:round;stroke-linejoin:miter;stroke-miterlimit:4;stroke-dasharray:none;stroke-opacity:1"
			d="M 20,18 L 25,18" />
	</g>
</svg>